<svg id="Layer_1" enable-background="new 0 0 508.786 508.786" height="512" viewBox="0 0 508.786 508.786" width="512" xmlns="http://www.w3.org/2000/svg"><path d="m508.31 310.364c-14.624-58.633-53.187-105.04-109.225-120.94 40.182-45.61 45.555-107.637 24.4-164.538-2.188-5.886-7.618-9.947-13.882-10.385-59.781-4.173-115.975 17.793-148.548 66.173-31.038-40.035-81.213-61.513-138.781-59.104-6.274.263-11.815 4.171-14.167 9.994-21.891 54.195-18.087 109.458 10.299 152.391-59.323 12.723-101.117 59.285-117.816 119.073-1.689 6.048.316 12.525 5.126 16.562 47.773 40.079 110.042 55.542 167.573 30.382-3.313 58.669 28.478 109.643 77.378 142.138 5.229 3.473 12.008 3.572 17.335.242 48.225-30.14 80.679-77.929 81.378-133.796 45.397 15.897 102.519 8.494 153.341-31.78 4.924-3.9 7.109-10.319 5.589-16.412z" fill="#fc93a0"/><path d="m494.386 271.843c-19.943-40.911-53.291-70.5-95.3-82.419 17.32-19.66 28.772-43.271 33.754-69.236-39.699 13.319-101.135-29.219-148.304-66.473-8.363 7.488-16.294 16.285-23.481 26.96-18.2-23.475-42.986-40.559-71.978-50.199-6.876 13.634-13.684 32.621-20.933 57.176-8.213 27.822-41.278 22.952-74.074 10.133-.605 31.182 7.578 60.826 24.335 86.171-33.111 7.101-63.441 25.557-86.367 55.196 23.176 21.274 33.009 35.78 84.536 122.966 19.604-.194 38.563-4.206 56.716-12.145-1.243 22.021 2.467 43.572 10.859 63.919 26.226 40.884 39.078 18.379 107.317.295 14.381-3.811 30.78-3.963 47.106-2.601 6.843-16.791 10.554-34.619 10.81-52.971.007-.582 20.268 8.642 51.787 7.612-29.312-54.244 49.83-83.037 93.217-94.384z" fill="#e88793"/><path d="m472.715 161.324c-38.377-31.293-87.163-44.405-133.663-28.162-3.06-42.128-27.379-80.616-67.795-106.667-5.278-3.402-12.059-3.402-17.337 0-40.948 26.394-65.367 65.556-67.899 108.335-47.242-18.543-98.031-6.236-138.168 26.495-4.867 3.968-6.962 10.417-5.357 16.488 13.394 50.678 48.121 91.206 98.625 103.262-28.927 38.969-31.514 88.757-13.691 134.719 2.271 5.854 7.756 9.84 14.025 10.19 47.761 2.654 92.816-14.04 121.134-50.905 28.284 36.82 73.306 53.565 121.134 50.905 6.27-.351 11.755-4.336 14.025-10.19 17.77-45.827 15.476-96.265-14.446-135.722 48.763-13.274 81.795-53.169 94.77-102.261 1.605-6.07-.49-12.518-5.357-16.487z" fill="#fda5b7"/><path d="m404.271 322.641c-4.208-15.352-11.154-29.627-20.968-42.568 18.348-4.995 34.523-13.826 48.28-25.533-6.985-5.823-15.443-11.228-24.482-15.95-46.243-24.163-31.6-77.975-50.289-110.19-6.503 1.239-12.151 2.803-17.76 4.762-.623-8.573-2.14-16.99-4.48-25.187-25.295-13.099-63.219-12.416-95.971 6.376-12.842 7.368-31.254 9.43-51.29 8.522-.62 3.948-1.052 7.937-1.29 11.957-20.297-7.967-41.898-10.419-63.616-7.365 7.512 4.357 16.032 9.317 25.705 14.969 76.183 44.515-17.157 88.148-47.347 121.021 9.456 6.316 19.747 11.344 30.746 14.918 10.855 3.526 10.118 1.968 8.826 3.745-6.977 9.603-12.443 20.009-16.406 30.989 19.777 9.645 45.972 15.326 68.476 13.761 28.167-1.958 44.735 36.676 56.146 63.606 5.07-4.707 9.769-9.837 14.038-15.394 3.839 4.998 8.023 9.653 12.513 13.965 18.292-39.914 64.183-44.49 129.169-66.404z" fill="#fc93a0"/><path d="m261.219 137.525c-25.501 0-46.247 20.746-46.247 46.246 0 25.501 20.746 46.247 46.247 46.247s46.247-20.746 46.247-46.247c0-25.5-20.746-46.246-46.247-46.246z" fill="#f0a567"/><path d="m261.219 137.525c-25.501 0-46.247 20.746-46.247 46.246 0 25.501 16.899-12.806 42.4-12.806s50.094 38.307 50.094 12.806c0-25.5-20.746-46.246-46.247-46.246z" fill="#fdaa6a"/><path d="m202.469 167.771c-25.501 0-46.247 20.746-46.247 46.247s20.746 46.247 46.247 46.247c25.5 0 46.247-20.746 46.247-46.247s-20.747-46.247-46.247-46.247z" fill="#f0a567"/><path d="m202.469 167.771c-25.501 0-46.247 20.746-46.247 46.247s20.746 46.247 46.247 46.247c25.5 0-13.763-36.746-13.763-62.247s39.263-30.247 13.763-30.247z" fill="#fdaa6a"/><path d="m214.392 239.945c-25.501 0-46.247 20.746-46.247 46.247 0 25.5 20.746 46.246 46.247 46.246 25.5 0 46.247-20.746 46.247-46.246-.001-25.501-20.747-46.247-46.247-46.247z" fill="#f0a567"/><path d="m202.469 286.192c-18.032-18.032-2.747-50.733-20.779-32.701-18.031 18.031-18.031 47.371.001 65.403s47.371 18.032 65.402 0c18.032-18.032-26.593-14.671-44.624-32.702z" fill="#fdaa6a"/><path d="m298.591 246.625c-25.5 0-46.247 20.746-46.247 46.246 0 25.501 20.746 46.247 46.247 46.247s46.247-20.746 46.247-46.247c0-25.5-20.747-46.246-46.247-46.246z" fill="#f0a567"/><path d="m319.178 170.966c-25.5 0-46.247 20.746-46.247 46.246 0 25.501 20.746 46.247 46.247 46.247s46.247-20.746 46.247-46.247c-.001-25.5-20.747-46.246-46.247-46.246z" fill="#f0a567"/><path d="m302.764 300.639c-18.032 18.032-54.906 6.902-36.875 24.934 18.032 18.032 47.371 18.032 65.403 0s18.032-47.371 0-65.403c-18.031-18.031-10.496 22.437-28.528 40.469z" fill="#fdaa6a"/><path d="m319.178 170.966c-25.5 0 3.97-3.937 3.97 21.563 0 25.501-29.471 70.93-3.97 70.93s46.247-20.746 46.247-46.247c-.001-25.5-20.747-46.246-46.247-46.246z" fill="#fdaa6a"/><path d="m261.219 198.018c-25.501 0-46.247 20.746-46.247 46.247 0 25.5 20.746 46.246 46.247 46.246s46.247-20.746 46.247-46.246-20.746-46.247-46.247-46.247z" fill="#f9b78a"/><path d="m261.219 198.018c-25.501 0-46.247 20.746-46.247 46.247 0 25.5 25.7-5.676 51.201-5.676s41.293 31.176 41.293 5.676-20.746-46.247-46.247-46.247z" fill="#f9bf98"/></svg>